<svg width="16" height="16" viewBox="0 0 16 16" fill="none" xmlns="http://www.w3.org/2000/svg">
<g clip-path="url(#clip0_1_510)">
<path d="M12.954 15.9686C12.6947 15.3785 12.518 14.7486 12.4373 14.0851C12.8447 14.7612 13.4867 15.2811 14.2527 15.5272C13.8827 14.8932 13.6133 14.1905 13.4633 13.4425C14.1027 12.8453 14.5027 11.9938 14.5027 11.0485C14.5027 9.23721 13.034 7.76854 11.2247 7.76854C10.9647 7.76854 10.7147 7.79854 10.4754 7.85321C10.604 5.12654 11.9133 2.70987 13.8927 1.09254C13.4113 0.807873 12.852 0.64854 12.2427 0.64854C11.1027 0.64854 10.1007 1.22854 9.51202 2.10721C9.52935 1.56921 9.67735 1.06321 9.92269 0.621873L9.88202 0.621873C8.29202 0.621873 6.96602 1.75054 6.66402 3.25254C6.59002 2.97721 6.55002 2.68654 6.55002 2.38854C6.55002 2.17921 6.57002 1.97854 6.60736 1.77787C5.30536 2.19854 4.35601 3.40787 4.32938 4.84721C3.45007 3.72721 2.92607 2.30787 2.92607 0.779206C2.92607 0.519206 2.94138 0.259872 2.97064 -0.000793961C2.04138 1.45854 1.49807 3.17787 1.49807 5.03721C1.49807 11.0732 6.49536 14.3698 10.822 14.3698C10.9613 14.3698 11.102 14.3698 11.242 14.3599C11.7014 15.0006 12.282 15.5599 12.9407 15.9999L12.954 15.9686Z" fill="white"/>
</g>
<defs>
<clipPath id="clip0_1_510">
<rect width="16" height="16" fill="white"/>
</clipPath>
</defs>
</svg>
